<svg xmlns="http://www.w3.org/2000/svg" width="37" height="37" fill="none" viewBox="0 0 37 37">
  <path fill="#78592A" d="M13.875 23.125a1.542 1.542 0 1 0 0 3.083 1.542 1.542 0 0 0 0-3.083ZM3.083 21.583a1.542 1.542 0 0 0-1.541 1.542v3.083a1.542 1.542 0 0 0 3.083 0v-3.083a1.542 1.542 0 0 0-1.542-1.542Zm30.834 0a1.542 1.542 0 0 0-1.542 1.542v3.083a1.542 1.542 0 0 0 3.083 0v-3.083a1.542 1.542 0 0 0-1.541-1.542Zm-7.709-10.791h-6.166V8.818a3.083 3.083 0 0 0 1.541-2.651 3.083 3.083 0 1 0-6.166 0 3.082 3.082 0 0 0 1.541 2.651v1.974h-6.166a4.625 4.625 0 0 0-4.625 4.625v13.875a4.625 4.625 0 0 0 4.625 4.625h15.416a4.625 4.625 0 0 0 4.625-4.625V15.417a4.625 4.625 0 0 0-4.625-4.625Zm-5.056 3.083-.771 3.083h-3.762l-.77-3.083h5.303Zm6.598 15.417a1.541 1.541 0 0 1-1.542 1.541H10.792a1.542 1.542 0 0 1-1.542-1.541V15.417a1.542 1.542 0 0 1 1.542-1.542h1.88l1.203 4.995a1.542 1.542 0 0 0 1.542 1.172h6.166a1.542 1.542 0 0 0 1.542-1.172l1.203-4.995h1.88a1.542 1.542 0 0 1 1.542 1.542v13.875Zm-4.625-6.167a1.542 1.542 0 1 0 0 3.083 1.542 1.542 0 0 0 0-3.083Z"/>
</svg>
