<svg xmlns="http://www.w3.org/2000/svg" width="38" height="39" fill="none" viewBox="0 0 38 39">
  <path fill="#0CB7FF" d="M19.362 7.31a1.552 1.552 0 0 0-1.552.186l-7.418 5.867H4.728a1.552 1.552 0 0 0-1.552 1.551v9.312a1.552 1.552 0 0 0 1.552 1.552h5.664l7.34 5.866c.274.22.613.34.963.341.232.004.461-.05.667-.155a1.552 1.552 0 0 0 .885-1.396V8.706a1.552 1.552 0 0 0-.885-1.397Zm-2.219 19.896-5.245-4.19a1.551 1.551 0 0 0-.963-.342H6.28v-6.208h4.655c.35-.002.69-.122.963-.341l5.245-4.19v15.27Zm13.44-16.42a1.558 1.558 0 0 0-2.204 2.204 9.311 9.311 0 0 1-.59 13.719 1.552 1.552 0 0 0 .993 2.731 1.55 1.55 0 0 0 .994-.357 12.414 12.414 0 0 0 .807-18.297Zm-4.392 4.392a1.558 1.558 0 0 0-2.204 2.204c.583.58.912 1.366.916 2.188a3.104 3.104 0 0 1-1.102 2.375 1.55 1.55 0 0 0 .271 2.566 1.552 1.552 0 0 0 1.715-.192 6.209 6.209 0 0 0 2.22-4.749 6.301 6.301 0 0 0-1.816-4.392Z"/>
</svg>
