<svg xmlns="http://www.w3.org/2000/svg" width="37" height="37" fill="none" viewBox="0 0 37 37">
  <path fill="#78592A" d="M19.163 6.32a1.542 1.542 0 0 0-1.542.186l-7.369 5.827H4.625a1.542 1.542 0 0 0-1.542 1.542v9.25a1.542 1.542 0 0 0 1.542 1.542h5.627l7.292 5.827c.271.218.608.337.956.34.23.003.458-.05.663-.155a1.542 1.542 0 0 0 .879-1.387V7.708a1.541 1.541 0 0 0-.88-1.387Zm-2.205 19.765-5.21-4.163a1.542 1.542 0 0 0-.956-.339H6.167v-6.166h4.625c.347-.002.684-.122.956-.34l5.21-4.162v15.17ZM30.695 18.5l2.775-2.76a1.548 1.548 0 0 0-2.19-2.189l-2.76 2.775-2.759-2.775a1.548 1.548 0 0 0-2.189 2.19l2.775 2.759-2.775 2.76a1.542 1.542 0 0 0 0 2.189 1.542 1.542 0 0 0 2.19 0l2.759-2.775 2.76 2.775a1.542 1.542 0 0 0 2.189 0 1.54 1.54 0 0 0 0-2.19L30.695 18.5Z"/>
</svg>
